<svg width="64" height="64" viewBox="0 0 64 64" fill="none" xmlns="http://www.w3.org/2000/svg">
<path fill-rule="evenodd" clip-rule="evenodd" d="M32.0006 12.875C23.4665 12.875 18.1341 17.1253 15.9997 25.6258C19.2001 21.3756 22.9336 19.782 27.2 20.844C29.6342 21.4497 31.3748 23.2091 33.2999 25.1571C36.4376 28.3291 40.0694 32 48.0003 32C56.5331 32 61.8668 27.7497 64 19.2504C60.8008 23.5007 57.0674 25.0942 52.801 24.031C50.3655 23.4253 48.6248 21.6659 46.6998 19.7192C43.5621 16.5447 39.9315 12.875 32.0006 12.875ZM15.9997 32C7.46686 32 2.13321 36.2503 0 44.7508C3.20044 40.5006 6.93387 38.907 11.199 39.969C13.6345 40.5747 15.3751 42.3341 17.3002 44.2821C20.4379 47.4541 24.0685 51.125 32.0006 51.125C40.5335 51.125 45.8671 46.876 48.0003 38.3754C44.7999 42.6257 41.0664 44.2192 36.8 43.1573C34.3658 42.5503 32.6252 40.7909 30.7001 38.8442C27.5624 35.6722 23.9306 32 15.9997 32Z" fill="#38BDF8"/>
</svg>
