<svg width="64" height="64" viewBox="0 0 64 64" fill="none" xmlns="http://www.w3.org/2000/svg">
<path d="M62.3829 9.2551L33.6613 60.4119C33.0683 61.4681 31.5448 61.4743 30.9428 60.4233L1.65172 9.26003C0.995979 8.11464 1.97929 6.72726 3.28238 6.95925L32.0348 12.0783C32.2182 12.111 32.406 12.1107 32.5894 12.0774L60.7405 6.96659C62.0392 6.73082 63.0271 8.10746 62.3829 9.2551Z" fill="url(#paint0_linear_1817_2697)"/>
<path d="M45.7309 0.244504L24.476 4.39289C24.1267 4.46107 23.868 4.75596 23.847 5.10985L22.5395 27.1049C22.5087 27.623 22.9864 28.0251 23.494 27.9085L29.4117 26.5481C29.9654 26.421 30.4657 26.9067 30.3519 27.4613L28.5937 36.0366C28.4754 36.6138 29.0194 37.1073 29.5853 36.9361L33.2403 35.83C33.8069 35.6586 34.3514 36.1535 34.2315 36.7311L31.4375 50.201C31.2627 51.0436 32.3878 51.503 32.8571 50.7807L33.1705 50.2982L50.4902 15.8701C50.7802 15.2936 50.2801 14.6363 49.6444 14.7585L43.5532 15.9295C42.9808 16.0394 42.4938 15.5084 42.6553 14.9506L46.631 1.22287C46.7927 0.66411 46.3039 0.132679 45.7309 0.244504Z" fill="url(#paint1_linear_1817_2697)"/>
<defs>
<linearGradient id="paint0_linear_1817_2697" x1="0.936553" y1="5.13098" x2="36.5" y2="53.6201" gradientUnits="userSpaceOnUse">
<stop stop-color="#41D1FF"/>
<stop offset="1" stop-color="#BD34FE"/>
</linearGradient>
<linearGradient id="paint1_linear_1817_2697" x1="30.3843" y1="1.37078" x2="36.8008" y2="45.5615" gradientUnits="userSpaceOnUse">
<stop stop-color="#FFEA83"/>
<stop offset="0.0833333" stop-color="#FFDD35"/>
<stop offset="1" stop-color="#FFA800"/>
</linearGradient>
</defs>
</svg>
